<svg id="Calque_1" data-name="Calque 1" xmlns="http://www.w3.org/2000/svg" viewBox="0 0 1080 1080"><defs><style>.cls-1,.cls-2{fill-rule:evenodd;}.cls-2{fill:#4bb881;}</style></defs><path class="cls-1" d="M568.25,257.43,474,450.47,521,473.38a10,10,0,0,1,4.61,13.41l-5.89,12.07a10,10,0,0,1-13.41,4.61L350.69,427.54a10,10,0,0,1-4.61-13.41L352,402.05a10,10,0,0,1,13.4-4.62L415.66,422l79.23-162.36c-135,21.6-238.16,138.6-238.16,279.69,0,110.47,63.24,206.18,155.49,252.88L675.35,290.41A281.49,281.49,0,0,0,568.25,257.43ZM436.36,552.17l-5.89,12.08a10,10,0,0,1-13.41,4.61l-63-30.75a10,10,0,0,1-4.61-13.4l5.89-12.08A10,10,0,0,1,368.75,508l63,30.74A10,10,0,0,1,436.36,552.17Zm46.91-31.56-5.89,12.08A10,10,0,0,1,464,537.3L350,481.7a10,10,0,0,1-4.61-13.41l5.89-12.07a10,10,0,0,1,13.41-4.62l113.94,55.6A10,10,0,0,1,483.27,520.61Z"/><path class="cls-2" d="M823.27,539.3c0,125.42-81.51,231.8-194.44,269.06l38.49-122.61,31.86,13.63a15,15,0,0,0,19.75-7.91l28.21-65.92h0l33.76-78.91a10,10,0,0,0-5.27-13.15l-11-4.69a10,10,0,0,0-13.16,5.28l-40.29,94.4a11.39,11.39,0,0,1-15,6h0a11.41,11.41,0,0,1-6-15l40.3-94.42a10,10,0,0,0-5.27-13.17l-11-4.69a10.05,10.05,0,0,0-13.17,5.28l-40.28,94.39a11.38,11.38,0,0,1-15,6h0a11.4,11.4,0,0,1-6-14.95l40.26-94.43a10,10,0,0,0-5.28-13.17l-10.94-4.68A10,10,0,0,0,650.78,491l-44.2,103.29-.08.21L588.81,635.8a15,15,0,0,0,7.91,19.74l28.63,12.25-83.77,152-1.4,2.68c-2.57.07-5,.06-7.59.06-45,0-80.11-10.48-117.88-29.15l-2.48-1.24L675.35,290.41c.82.44,1.63.89,2.44,1.34C764.57,340.16,823.27,432.87,823.27,539.3Z"/></svg>